<mxfile host="app.diagrams.net" agent="Mozilla/5.0 (Windows NT 10.0; Win64; x64) AppleWebKit/537.36 (KHTML, like Gecko) Chrome/128.0.0.0 Safari/537.36 Edg/128.0.0.0" version="24.7.12">
  <diagram name="Sida-1" id="nnDoThvHQ_QYUEsaVjcj">
    <mxGraphModel dx="981" dy="434" grid="1" gridSize="10" guides="1" tooltips="1" connect="1" arrows="1" fold="1" page="1" pageScale="1" pageWidth="827" pageHeight="1169" math="0" shadow="0">
      <root>
        <mxCell id="0" />
        <mxCell id="1" parent="0" />
        <mxCell id="XFpWWGiLl26WrSRfNVlt-15" style="edgeStyle=orthogonalEdgeStyle;rounded=0;orthogonalLoop=1;jettySize=auto;html=1;exitX=0.25;exitY=1;exitDx=0;exitDy=0;entryX=0.5;entryY=0;entryDx=0;entryDy=0;curved=1;" edge="1" parent="1" source="XFpWWGiLl26WrSRfNVlt-1" target="XFpWWGiLl26WrSRfNVlt-4">
          <mxGeometry relative="1" as="geometry" />
        </mxCell>
        <mxCell id="XFpWWGiLl26WrSRfNVlt-16" style="edgeStyle=orthogonalEdgeStyle;rounded=0;orthogonalLoop=1;jettySize=auto;html=1;exitX=0.75;exitY=1;exitDx=0;exitDy=0;entryX=0.5;entryY=0;entryDx=0;entryDy=0;curved=1;" edge="1" parent="1" source="XFpWWGiLl26WrSRfNVlt-1" target="XFpWWGiLl26WrSRfNVlt-2">
          <mxGeometry relative="1" as="geometry" />
        </mxCell>
        <mxCell id="XFpWWGiLl26WrSRfNVlt-1" value="&lt;b&gt;Void loop&lt;/b&gt;" style="rounded=1;whiteSpace=wrap;html=1;" vertex="1" parent="1">
          <mxGeometry x="394" y="50" width="120" height="30" as="geometry" />
        </mxCell>
        <mxCell id="XFpWWGiLl26WrSRfNVlt-17" style="edgeStyle=orthogonalEdgeStyle;rounded=0;orthogonalLoop=1;jettySize=auto;html=1;exitX=0.5;exitY=1;exitDx=0;exitDy=0;" edge="1" parent="1" source="XFpWWGiLl26WrSRfNVlt-2" target="XFpWWGiLl26WrSRfNVlt-3">
          <mxGeometry relative="1" as="geometry" />
        </mxCell>
        <mxCell id="XFpWWGiLl26WrSRfNVlt-2" value="&lt;b&gt;WiFi Manager&lt;/b&gt;" style="rounded=1;whiteSpace=wrap;html=1;" vertex="1" parent="1">
          <mxGeometry x="490" y="140" width="120" height="30" as="geometry" />
        </mxCell>
        <mxCell id="XFpWWGiLl26WrSRfNVlt-13" style="edgeStyle=orthogonalEdgeStyle;rounded=0;orthogonalLoop=1;jettySize=auto;html=1;exitX=0.5;exitY=1;exitDx=0;exitDy=0;entryX=0.5;entryY=0;entryDx=0;entryDy=0;" edge="1" parent="1" source="XFpWWGiLl26WrSRfNVlt-3" target="XFpWWGiLl26WrSRfNVlt-6">
          <mxGeometry relative="1" as="geometry" />
        </mxCell>
        <mxCell id="XFpWWGiLl26WrSRfNVlt-3" value="&lt;b&gt;MQTT Manager&lt;/b&gt;" style="rounded=1;whiteSpace=wrap;html=1;" vertex="1" parent="1">
          <mxGeometry x="490" y="200" width="120" height="30" as="geometry" />
        </mxCell>
        <mxCell id="XFpWWGiLl26WrSRfNVlt-14" style="edgeStyle=orthogonalEdgeStyle;rounded=0;orthogonalLoop=1;jettySize=auto;html=1;exitX=0.5;exitY=1;exitDx=0;exitDy=0;entryX=0.5;entryY=0;entryDx=0;entryDy=0;" edge="1" parent="1" source="XFpWWGiLl26WrSRfNVlt-4" target="XFpWWGiLl26WrSRfNVlt-5">
          <mxGeometry relative="1" as="geometry" />
        </mxCell>
        <mxCell id="XFpWWGiLl26WrSRfNVlt-4" value="&lt;b&gt;Sensing SHK&lt;/b&gt;" style="rounded=1;whiteSpace=wrap;html=1;" vertex="1" parent="1">
          <mxGeometry x="320" y="140" width="120" height="30" as="geometry" />
        </mxCell>
        <mxCell id="XFpWWGiLl26WrSRfNVlt-19" style="edgeStyle=orthogonalEdgeStyle;rounded=0;orthogonalLoop=1;jettySize=auto;html=1;exitX=1;exitY=0.75;exitDx=0;exitDy=0;entryX=0;entryY=0.75;entryDx=0;entryDy=0;" edge="1" parent="1" source="XFpWWGiLl26WrSRfNVlt-5" target="XFpWWGiLl26WrSRfNVlt-6">
          <mxGeometry relative="1" as="geometry" />
        </mxCell>
        <mxCell id="XFpWWGiLl26WrSRfNVlt-5" value="&lt;b&gt;LineStatusHandler&lt;/b&gt;&lt;div&gt;&lt;br&gt;&lt;/div&gt;&lt;div&gt;-Current Status&lt;/div&gt;&lt;div&gt;- Previous Status&lt;/div&gt;&lt;div&gt;- Time last changed&lt;/div&gt;&lt;div&gt;&lt;br&gt;&lt;/div&gt;" style="rounded=1;whiteSpace=wrap;html=1;" vertex="1" parent="1">
          <mxGeometry x="320" y="260" width="120" height="120" as="geometry" />
        </mxCell>
        <mxCell id="XFpWWGiLl26WrSRfNVlt-18" style="edgeStyle=orthogonalEdgeStyle;rounded=0;orthogonalLoop=1;jettySize=auto;html=1;exitX=0;exitY=0.25;exitDx=0;exitDy=0;entryX=1;entryY=0.25;entryDx=0;entryDy=0;" edge="1" parent="1" source="XFpWWGiLl26WrSRfNVlt-6" target="XFpWWGiLl26WrSRfNVlt-5">
          <mxGeometry relative="1" as="geometry" />
        </mxCell>
        <mxCell id="XFpWWGiLl26WrSRfNVlt-6" value="&lt;b&gt;LineStatusActions&lt;/b&gt;&lt;div&gt;&lt;br&gt;&lt;/div&gt;&lt;div&gt;Reacts on status changes and imitate functions for example ringing&lt;/div&gt;&lt;div&gt;&lt;br&gt;&lt;/div&gt;" style="rounded=1;whiteSpace=wrap;html=1;" vertex="1" parent="1">
          <mxGeometry x="490" y="260" width="120" height="120" as="geometry" />
        </mxCell>
        <mxCell id="XFpWWGiLl26WrSRfNVlt-7" value="RingFunction" style="rounded=1;whiteSpace=wrap;html=1;" vertex="1" parent="1">
          <mxGeometry x="110" y="600" width="120" height="40" as="geometry" />
        </mxCell>
        <mxCell id="XFpWWGiLl26WrSRfNVlt-8" value="PulsDialing" style="rounded=1;whiteSpace=wrap;html=1;" vertex="1" parent="1">
          <mxGeometry x="250" y="600" width="120" height="40" as="geometry" />
        </mxCell>
        <mxCell id="XFpWWGiLl26WrSRfNVlt-9" value="ToneDialing" style="rounded=1;whiteSpace=wrap;html=1;" vertex="1" parent="1">
          <mxGeometry x="390" y="600" width="120" height="40" as="geometry" />
        </mxCell>
        <mxCell id="XFpWWGiLl26WrSRfNVlt-10" value="MQTT-Uppdate" style="rounded=1;whiteSpace=wrap;html=1;" vertex="1" parent="1">
          <mxGeometry x="530" y="600" width="120" height="40" as="geometry" />
        </mxCell>
        <mxCell id="XFpWWGiLl26WrSRfNVlt-11" value="Audio Generator" style="rounded=1;whiteSpace=wrap;html=1;" vertex="1" parent="1">
          <mxGeometry x="670" y="600" width="120" height="40" as="geometry" />
        </mxCell>
        <mxCell id="XFpWWGiLl26WrSRfNVlt-12" value="ConnectionMatrix" style="rounded=1;whiteSpace=wrap;html=1;" vertex="1" parent="1">
          <mxGeometry x="810" y="600" width="120" height="40" as="geometry" />
        </mxCell>
      </root>
    </mxGraphModel>
  </diagram>
</mxfile>
